<mxfile host="Electron" agent="Mozilla/5.0 (Windows NT 10.0; Win64; x64) AppleWebKit/537.36 (KHTML, like Gecko) draw.io/27.0.9 Chrome/134.0.6998.205 Electron/35.4.0 Safari/537.36" version="27.0.9">
  <diagram name="Page-1" id="W7wfVVrNylrhZZH5pJrh">
    <mxGraphModel dx="1090" dy="661" grid="1" gridSize="10" guides="1" tooltips="1" connect="1" arrows="1" fold="1" page="1" pageScale="1" pageWidth="850" pageHeight="1100" math="0" shadow="0">
      <root>
        <mxCell id="0" />
        <mxCell id="1" parent="0" />
        <mxCell id="U9lOWLKlYCShCcdGNxR7-1" value="" style="ellipse;whiteSpace=wrap;html=1;aspect=fixed;" vertex="1" parent="1">
          <mxGeometry x="80" y="40" width="80" height="80" as="geometry" />
        </mxCell>
        <mxCell id="U9lOWLKlYCShCcdGNxR7-2" value="" style="ellipse;whiteSpace=wrap;html=1;aspect=fixed;" vertex="1" parent="1">
          <mxGeometry x="227" y="40" width="80" height="80" as="geometry" />
        </mxCell>
        <mxCell id="U9lOWLKlYCShCcdGNxR7-3" value="" style="ellipse;whiteSpace=wrap;html=1;aspect=fixed;" vertex="1" parent="1">
          <mxGeometry x="375" y="40" width="80" height="80" as="geometry" />
        </mxCell>
        <mxCell id="U9lOWLKlYCShCcdGNxR7-4" value="" style="ellipse;whiteSpace=wrap;html=1;aspect=fixed;fillColor=#d0cee2;strokeColor=#56517e;" vertex="1" parent="1">
          <mxGeometry x="522" y="40" width="80" height="80" as="geometry" />
        </mxCell>
        <mxCell id="U9lOWLKlYCShCcdGNxR7-5" value="" style="ellipse;whiteSpace=wrap;html=1;aspect=fixed;" vertex="1" parent="1">
          <mxGeometry x="80" y="178" width="80" height="80" as="geometry" />
        </mxCell>
        <mxCell id="U9lOWLKlYCShCcdGNxR7-6" value="" style="ellipse;whiteSpace=wrap;html=1;aspect=fixed;fillColor=#60a917;fontColor=#ffffff;strokeColor=#2D7600;" vertex="1" parent="1">
          <mxGeometry x="227" y="178" width="80" height="80" as="geometry" />
        </mxCell>
        <mxCell id="U9lOWLKlYCShCcdGNxR7-7" value="" style="ellipse;whiteSpace=wrap;html=1;aspect=fixed;" vertex="1" parent="1">
          <mxGeometry x="375" y="178" width="80" height="80" as="geometry" />
        </mxCell>
        <mxCell id="U9lOWLKlYCShCcdGNxR7-8" value="" style="ellipse;whiteSpace=wrap;html=1;aspect=fixed;" vertex="1" parent="1">
          <mxGeometry x="522" y="178" width="80" height="80" as="geometry" />
        </mxCell>
        <mxCell id="U9lOWLKlYCShCcdGNxR7-9" value="" style="ellipse;whiteSpace=wrap;html=1;aspect=fixed;" vertex="1" parent="1">
          <mxGeometry x="80" y="317" width="80" height="80" as="geometry" />
        </mxCell>
        <mxCell id="U9lOWLKlYCShCcdGNxR7-10" value="" style="ellipse;whiteSpace=wrap;html=1;aspect=fixed;fillColor=#60a917;fontColor=#ffffff;strokeColor=#2D7600;" vertex="1" parent="1">
          <mxGeometry x="227" y="317" width="80" height="80" as="geometry" />
        </mxCell>
        <mxCell id="U9lOWLKlYCShCcdGNxR7-11" value="" style="ellipse;whiteSpace=wrap;html=1;aspect=fixed;fillColor=#60a917;fontColor=#ffffff;strokeColor=#2D7600;" vertex="1" parent="1">
          <mxGeometry x="375" y="317" width="80" height="80" as="geometry" />
        </mxCell>
        <mxCell id="U9lOWLKlYCShCcdGNxR7-12" value="" style="ellipse;whiteSpace=wrap;html=1;aspect=fixed;" vertex="1" parent="1">
          <mxGeometry x="522" y="317" width="80" height="80" as="geometry" />
        </mxCell>
        <mxCell id="U9lOWLKlYCShCcdGNxR7-13" value="" style="ellipse;whiteSpace=wrap;html=1;aspect=fixed;" vertex="1" parent="1">
          <mxGeometry x="80" y="455" width="80" height="80" as="geometry" />
        </mxCell>
        <mxCell id="U9lOWLKlYCShCcdGNxR7-14" value="" style="ellipse;whiteSpace=wrap;html=1;aspect=fixed;" vertex="1" parent="1">
          <mxGeometry x="227" y="455" width="80" height="80" as="geometry" />
        </mxCell>
        <mxCell id="U9lOWLKlYCShCcdGNxR7-15" value="" style="ellipse;whiteSpace=wrap;html=1;aspect=fixed;" vertex="1" parent="1">
          <mxGeometry x="375" y="455" width="80" height="80" as="geometry" />
        </mxCell>
        <mxCell id="U9lOWLKlYCShCcdGNxR7-16" value="" style="ellipse;whiteSpace=wrap;html=1;aspect=fixed;" vertex="1" parent="1">
          <mxGeometry x="522" y="455" width="80" height="80" as="geometry" />
        </mxCell>
        <mxCell id="U9lOWLKlYCShCcdGNxR7-17" value="" style="endArrow=classic;html=1;rounded=0;exitX=0.5;exitY=1;exitDx=0;exitDy=0;entryX=0.5;entryY=0;entryDx=0;entryDy=0;" edge="1" parent="1" source="U9lOWLKlYCShCcdGNxR7-6" target="U9lOWLKlYCShCcdGNxR7-10">
          <mxGeometry width="50" height="50" relative="1" as="geometry">
            <mxPoint x="-79" y="481" as="sourcePoint" />
            <mxPoint x="-29" y="431" as="targetPoint" />
          </mxGeometry>
        </mxCell>
        <mxCell id="U9lOWLKlYCShCcdGNxR7-18" value="" style="endArrow=classic;html=1;rounded=0;exitX=0;exitY=0.5;exitDx=0;exitDy=0;entryX=1;entryY=0.5;entryDx=0;entryDy=0;" edge="1" parent="1" source="U9lOWLKlYCShCcdGNxR7-11" target="U9lOWLKlYCShCcdGNxR7-10">
          <mxGeometry width="50" height="50" relative="1" as="geometry">
            <mxPoint x="261" y="291" as="sourcePoint" />
            <mxPoint x="311" y="241" as="targetPoint" />
          </mxGeometry>
        </mxCell>
        <mxCell id="U9lOWLKlYCShCcdGNxR7-19" value="$$\emptyset$$" style="text;html=1;align=center;verticalAlign=middle;whiteSpace=wrap;rounded=0;" vertex="1" parent="1">
          <mxGeometry x="315" y="317" width="60" height="30" as="geometry" />
        </mxCell>
        <mxCell id="U9lOWLKlYCShCcdGNxR7-20" value="$$y(t,u)$$" style="text;html=1;align=center;verticalAlign=middle;whiteSpace=wrap;rounded=0;" vertex="1" parent="1">
          <mxGeometry x="201" y="271" width="60" height="30" as="geometry" />
        </mxCell>
        <mxCell id="U9lOWLKlYCShCcdGNxR7-21" value="$$\beta(t,u)$$" style="text;html=1;align=center;verticalAlign=middle;whiteSpace=wrap;rounded=0;" vertex="1" parent="1">
          <mxGeometry x="237" y="342" width="60" height="30" as="geometry" />
        </mxCell>
        <mxCell id="U9lOWLKlYCShCcdGNxR7-22" value="$$\beta(t,u+1)$$" style="text;html=1;align=center;verticalAlign=middle;whiteSpace=wrap;rounded=0;" vertex="1" parent="1">
          <mxGeometry x="237" y="203" width="60" height="30" as="geometry" />
        </mxCell>
        <mxCell id="U9lOWLKlYCShCcdGNxR7-23" value="$$\beta(t-1,u)$$" style="text;html=1;align=center;verticalAlign=middle;whiteSpace=wrap;rounded=0;" vertex="1" parent="1">
          <mxGeometry x="385" y="342" width="60" height="30" as="geometry" />
        </mxCell>
      </root>
    </mxGraphModel>
  </diagram>
</mxfile>
